<svg width="355.00000000000006" height="73.99999999999999" xmlns="http://www.w3.org/2000/svg" xmlns:svg="http://www.w3.org/2000/svg">
 <g>
  <title>Layer 1</title>
  <g id="SvgjsG1084" fill="#ffffff" transform="translate(10,10) scale(0.6992049813270569) " stroke="null">
   <polygon points="47.556560039520264,51.01718997955322 72.3380274772644,36.51719379425049 72.14057111740112,7.517185211181641 47.35909986495972,-6.882808685302734 22.67635679244995,7.717197418212891 47.45783185958862,22.11719036102295 " id="svg_2" stroke="null" fill="#7c7c7c"/>
   <polygon points="72.3380274772644,40.41719150543213 72.3380274772644,40.41719150543213 47.556560039520264,55.01718997955322 22.775088787078857,40.61719226837158 22.873820781707764,69.61719226837158 47.65529203414917,84.01719379425049 72.43676710128784,69.4171953201294 " id="svg_3" stroke="null" fill="#7c7c7c"/>
   <polygon points="44.19971036911011,24.317187309265137 19.319505214691162,10.01718521118164 -5.363235950469971,24.617192268371582 -5.26450777053833,53.51719379425049 19.615697383880615,67.9171953201294 19.418235301971436,38.917195320129395 " id="svg_4" stroke="null" fill="#7c7c7c"/>
  </g>
  <g id="main_text" fill="#ffffff" transform="translate(-7.365747928619385,-24.700843811035156) scale(3.592080593109131) ">
   <path d="m33.96465,14.29374q0,1.56 -0.82,2.46t-2.16,1.3q0.32,0.4 0.83,1.08t1.05,1.49t1.06,1.69t0.88,1.68l-1.46,0q-0.42,-0.8 -0.91,-1.6t-1,-1.55t-0.99,-1.39l-0.84,-1.12q-0.64,0.06 -1.28,0.06l-2.24,0l0,5.6l-1.36,0l0,-13.6q0.72,-0.2 1.69,-0.29t1.79,-0.09q2.86,0 4.31,1.08t1.45,3.2zm-5.6,-3.1q-0.76,0 -1.33,0.05t-0.95,0.09l0,5.9l1.88,0q0.94,0 1.78,-0.09t1.46,-0.4t0.98,-0.89t0.36,-1.58q0,-0.92 -0.36,-1.52t-0.94,-0.95t-1.33,-0.48t-1.55,-0.13zm8.02,7.62q0,-1.36 0.39,-2.37t1.02,-1.69t1.44,-1.01t1.67,-0.33q1.9,0 3.03,1.24t1.13,3.82q0,0.16 -0.01,0.32t-0.03,0.3l-7.26,0q0.06,1.9 0.94,2.92t2.8,1.02q1.06,0 1.68,-0.2t0.9,-0.34l0.24,1.12q-0.28,0.16 -1.05,0.38t-1.81,0.22q-1.36,0 -2.32,-0.4t-1.58,-1.12t-0.9,-1.71t-0.28,-2.17zm7.34,-0.82q-0.04,-1.62 -0.76,-2.52t-2.04,-0.9q-0.7,0 -1.25,0.28t-0.96,0.75t-0.64,1.09t-0.27,1.3l5.92,0zm8.04,-9.52q0.84,0 1.37,0.13t0.69,0.23l-0.26,1.12q-0.22,-0.1 -0.65,-0.21t-1.09,-0.11q-1.38,0 -1.97,0.7t-0.59,2.24l0,1.08l4.16,0l0,1.1l-4.16,0l0,9.24l-1.3,0l0,-11.46q0,-2.02 0.93,-3.04t2.87,-1.02zm7.24,4.98q0.64,0 1.21,0.1t0.79,0.2l-0.26,1.12q-0.16,-0.08 -0.65,-0.17t-1.29,-0.09q-0.84,0 -1.35,0.12t-0.67,0.2l0,9.06l-1.3,0l0,-9.86q0.5,-0.22 1.38,-0.45t2.14,-0.23zm7.22,9.6q0.76,0 1.33,-0.05t0.97,-0.13l0,-3.64q-0.22,-0.1 -0.7,-0.21t-1.32,-0.11q-0.48,0 -1,0.07t-0.96,0.3t-0.72,0.63t-0.28,1.06q0,0.58 0.19,0.98t0.54,0.64t0.84,0.35t1.11,0.11zm-0.12,-9.64q1.02,0 1.73,0.29t1.15,0.8t0.64,1.21t0.2,1.52l0,6.52q-0.2,0.06 -0.58,0.13t-0.88,0.15t-1.11,0.13t-1.25,0.05q-0.82,0 -1.51,-0.18t-1.2,-0.57t-0.8,-1t-0.29,-1.49q0,-0.84 0.32,-1.44t0.9,-0.99t1.38,-0.57t1.74,-0.18q0.28,0 0.59,0.03t0.6,0.08t0.5,0.1t0.29,0.09l0,-0.64q0,-0.54 -0.08,-1.05t-0.35,-0.92t-0.76,-0.66t-1.29,-0.25q-1.14,0 -1.7,0.16t-0.82,0.26l-0.18,-1.14q0.34,-0.16 1.05,-0.3t1.71,-0.14zm7.04,0.6q0.58,-0.16 1.51,-0.36t2.41,-0.2q1.96,0 2.84,1.14q0.1,-0.08 0.39,-0.27t0.73,-0.39t1.03,-0.34t1.31,-0.14q1.18,0 1.91,0.35t1.13,0.98t0.54,1.51t0.14,1.92l0,5.78l-1.3,0l0,-5.36q0,-1.02 -0.09,-1.77t-0.36,-1.24t-0.77,-0.74t-1.3,-0.25q-0.6,0 -1.09,0.11t-0.85,0.27t-0.59,0.32t-0.33,0.24q0.18,0.52 0.27,1.17t0.09,1.37l0,5.88l-1.3,0l0,-5.36q0,-1.02 -0.09,-1.77t-0.37,-1.24t-0.79,-0.74t-1.35,-0.25q-0.94,0 -1.59,0.1t-0.83,0.18l0,9.08l-1.3,0l0,-9.98zm16.64,4.8q0,-1.36 0.39,-2.37t1.02,-1.69t1.44,-1.01t1.67,-0.33q1.9,0 3.03,1.24t1.13,3.82q0,0.16 -0.01,0.32t-0.03,0.3l-7.26,0q0.06,1.9 0.94,2.92t2.8,1.02q1.06,0 1.68,-0.2t0.9,-0.34l0.24,1.12q-0.28,0.16 -1.05,0.38t-1.81,0.22q-1.36,0 -2.32,-0.4t-1.58,-1.12t-0.9,-1.71t-0.28,-2.17zm7.34,-0.82q-0.04,-1.62 -0.76,-2.52t-2.04,-0.9q-0.7,0 -1.25,0.28t-0.96,0.75t-0.64,1.09t-0.27,1.3l5.92,0z" id="svg_5" fill="#777777"/>
  </g>
 </g>
</svg>
