<svg width="16" height="16" viewBox="0 0 448 512" xmlns="http://www.w3.org/2000/svg">
 <style type="text/css">.st0{fill:#17a847;}</style>
 <g>
  <path stroke="null" id="svg_1" d="m436,284c6.6,0 12,-8.38929 12,-18.64286l0,-49.71429c0,-10.25357 -5.4,-18.64285 -12,-18.64285l-424,0c-6.6,0 -12,8.38928 -12,18.64285l0,49.71429c0,10.25357 5.4,18.64286 12,18.64286l424,0z" class="st0"/>
 </g>
 <g id="svg_3" transform="rotate(90 446.6455078125,-239.99999999999997) ">
  <path stroke="null" id="svg_2" d="m1140.6455,33c6.6,0 12,-8.38929 12,-18.64286l0,-49.71429c0,-10.25357 -5.4,-18.64285 -12,-18.64285l-424,0c-6.6,0 -12,8.38928 -12,18.64285l0,49.71429c0,10.25357 5.4,18.64286 12,18.64286l424,0z" class="st0"/>
 </g>
</svg>
