<?xml version="1.0" encoding="UTF-8"?>
<svg viewBox="0 0 221 59" xmlns="http://www.w3.org/2000/svg">
<defs>
<linearGradient id="d" x1=".19794" x2=".90106" y1=".32813" y2=".57813">
<stop stop-color="#6c79f0" offset="0"/>
<stop stop-color="#20a2e8" offset="1"/>
</linearGradient>
<linearGradient id="e" x1="1" y1="1">
<stop stop-color="#6c79f0" offset="0"/>
<stop stop-color="#a85af7" offset="1"/>
</linearGradient>
<linearGradient id="f" x1=".85419" x2=".24872" y1=".82813" y2=".42188">
<stop stop-color="#d043fb" offset="0"/>
<stop stop-color="#a85af7" offset="1"/>
</linearGradient>
</defs>
<g>
<title>background</title>
<rect x="-1" y="-1" width="223" height="61" fill="none"/>
</g>
<g>
<title>Layer 1</title>
<g stroke="null">
<polygon points="49.233 29.971 49.233 29.971 33.531 39.221 17.829 30.097 17.891 48.473 33.594 57.597 49.296 48.345" fill="url(#d)"/>
<polygon points="31.405 19.769 15.64 10.708 0 19.96 0.062548 38.271 15.827 47.395 15.702 29.02" fill="url(#e)"/>
<polygon points="33.531 36.687 49.233 27.5 49.109 9.1242 33.406 0 17.767 9.2505 33.469 18.375" fill="url(#f)"/>
</g>
<g transform="translate(-7.3657 -18.0) scale(3.5921)" fill="#595959">
<path d="m25.078 11.082q0 0.92393-0.48565 1.457t-1.2793 0.76994q0.18952 0.2369 0.49157 0.63964t0.62188 0.88246 0.62779 1.0009 0.52119 0.995h-0.8647q-0.24875-0.47381-0.53896-0.94762t-0.59226-0.918-0.58633-0.82324l-0.4975-0.66333q-0.37905 0.03553-0.75809 0.03553h-1.3267v3.3167h-0.80548v-8.0547q0.42643-0.11845 1.0009-0.17176t1.0602-0.0533q1.6939 0 2.5526 0.63964t0.85878 1.8952zm-3.3166-1.836q-0.45012 0-0.78771 0.02961t-0.56264 0.0533v3.4943h1.1134q0.55672 0 1.0542-0.0533t0.8647-0.2369 0.58041-0.52711 0.21321-0.93577q0-0.54488-0.21321-0.90024t-0.55672-0.56264-0.78771-0.28429-0.918-0.07699zm4.7499 4.513q0-0.80547 0.23098-1.4036t0.60411-1.0009 0.85285-0.59818 0.98907-0.19545q1.1253 0 1.7946 0.7344t0.66925 2.2624q0 0.09477-0.00592 0.18953t-0.01777 0.17768h-4.2998q0.03553 1.1253 0.55672 1.7294t1.6583 0.60411q0.62779 0 0.99499-0.11845t0.53304-0.20137l0.14214 0.66333q-0.16584 0.09476-0.62187 0.22506t-1.072 0.13029q-0.80548 0-1.374-0.2369t-0.93577-0.66333-0.53303-1.0128-0.16583-1.2852zm4.3472-0.48565q-0.02369-0.95946-0.45011-1.4925t-1.2082-0.53304q-0.41458 0-0.74033 0.16584t-0.56857 0.44419-0.37904 0.64556-0.15991 0.76994h3.5062zm4.7618-5.6383q0.4975 0 0.81139 0.077t0.40866 0.13622l-0.15398 0.66333q-0.1303-0.05923-0.38497-0.12438t-0.64557-0.06515q-0.81731 0-1.1668 0.41458t-0.34943 1.3267v0.63964h2.4638v0.65148h-2.4638v5.4725h-0.76994v-6.7873q0-1.1964 0.5508-1.8005t1.6998-0.60411zm4.288 2.9494q0.37904 0 0.71663 0.05923t0.46789 0.11845l-0.15399 0.66333q-0.09476-0.04738-0.38497-0.10068t-0.76402-0.05331q-0.49749 0-0.79955 0.07108t-0.39681 0.11845v5.3659h-0.76994v-5.8397q0.29613-0.1303 0.81732-0.26652t1.2674-0.13622zm4.2761 5.6857q0.45012 0 0.78771-0.02961t0.57449-0.07699v-2.1558q-0.1303-0.05922-0.41459-0.12437t-0.78178-0.06515q-0.28428 0-0.59226 0.04146t-0.56856 0.17768-0.42643 0.37312-0.16583 0.62779q0 0.34351 0.11252 0.58042t0.31982 0.37904 0.4975 0.20729 0.65741 0.06515zm-0.07107-5.7094q0.6041 0 1.0246 0.17176t0.6811 0.47381 0.37904 0.71663 0.11845 0.90023v3.8615q-0.11845 0.03554-0.34351 0.077t-0.52118 0.08884-0.65741 0.07699-0.74033 0.02961q-0.48565 0-0.89431-0.1066t-0.71071-0.33759-0.47381-0.59226-0.17175-0.88247q0-0.49749 0.18952-0.85285t0.53303-0.58634 0.81732-0.33758 1.0305-0.10661q0.16584 0 0.34944 0.01777t0.35535 0.04738 0.29613 0.05922 0.17176 0.05331v-0.37905q0-0.31982-0.04738-0.62187t-0.20729-0.54488-0.45012-0.39089-0.76402-0.14807q-0.67517 0-1.0068 0.09477t-0.48565 0.15398l-0.10661-0.67517q0.20137-0.09476 0.62187-0.17768t1.0128-0.08292zm4.1695 0.35536q0.34351-0.09476 0.89432-0.21321t1.4273-0.11846q1.1608 0 1.682 0.67518 0.05922-0.04738 0.23098-0.15991t0.43235-0.23098 0.61003-0.20137 0.77586-0.08291q0.69886 0 1.1312 0.20729t0.66925 0.58041 0.31982 0.89431 0.08292 1.1371v3.4233h-0.76994v-3.1745q0-0.60411-0.0533-1.0483t-0.21321-0.7344-0.45604-0.43827-0.76994-0.14807q-0.35536 0-0.64556 0.06515t-0.50342 0.15991-0.34944 0.18952-0.19544 0.14215q0.1066 0.30797 0.15991 0.69294t0.0533 0.81139v3.4825h-0.76994v-3.1745q0-0.60411-0.0533-1.0483t-0.21913-0.7344-0.46789-0.43827-0.79955-0.14807q-0.55672 0-0.94169 0.05923t-0.49158 0.1066v5.3777h-0.76993v-5.9108h-1e-5zm9.8552 2.8428q0-0.80547 0.23098-1.4036t0.60411-1.0009 0.85285-0.59818 0.98907-0.19545q1.1253 0 1.7946 0.73441t0.66925 2.2624q0 0.09476-0.00592 0.18952t-0.01777 0.17768h-4.2998q0.03553 1.1253 0.55672 1.7294t1.6583 0.60411q0.62779 0 0.99499-0.11845t0.53304-0.20137l0.14214 0.66333q-0.16583 0.09476-0.62187 0.22506t-1.072 0.1303q-0.80547 0-1.374-0.23691t-0.93577-0.66333-0.53304-1.0128-0.16583-1.2852zm4.3472-0.48565q-0.02369-0.95946-0.45011-1.4925t-1.2082-0.53304q-0.41458 0-0.74033 0.16584t-0.56856 0.44419-0.37905 0.64557-0.15991 0.76993h3.5062z" fill="#595959" stroke="null"/>
</g>
</g>
</svg>
