<?xml version="1.0" encoding="UTF-8"?>
<svg viewBox="0 0 221 59" xmlns="http://www.w3.org/2000/svg">
<defs>
<linearGradient id="d" x1=".19794" x2=".90106" y1=".32813" y2=".57813">
<stop stop-color="#6c79f0" offset="0"/>
<stop stop-color="#20a2e8" offset="1"/>
</linearGradient>
<linearGradient id="e" x1="1" y1="1">
<stop stop-color="#6c79f0" offset="0"/>
<stop stop-color="#a85af7" offset="1"/>
</linearGradient>
<linearGradient id="f" x1=".85419" x2=".24872" y1=".82813" y2=".42188">
<stop stop-color="#d043fb" offset="0"/>
<stop stop-color="#a85af7" offset="1"/>
</linearGradient>
</defs>
<g>
<title>background</title>
<rect x="-1" y="-1" width="223" height="61" fill="none"/>
</g>
<g>
<title>Layer 1</title>
<g stroke="null">
<polygon points="49.233 29.971 49.233 29.971 33.531 39.221 17.829 30.097 17.891 48.473 33.594 57.597 49.296 48.345" fill="url(#d)"/>
<polygon points="31.405 19.769 15.64 10.708 0 19.96 0.062548 38.271 15.827 47.395 15.702 29.02" fill="url(#e)"/>
<polygon points="33.531 36.687 49.233 27.5 49.109 9.1242 33.406 0 17.767 9.2505 33.469 18.375" fill="url(#f)"/>
</g>
<g transform="translate(-7.3657 -24.701) scale(3.5921)" fill="#595959">
<path d="m25.078 11.082q0 0.92393-0.48565 1.457t-1.2793 0.76994q0.18952 0.2369 0.49157 0.63964t0.62188 0.88246 0.62779 1.0009 0.52119 0.995h-0.8647q-0.24875-0.47381-0.53896-0.94762t-0.59226-0.918-0.58633-0.82324l-0.4975-0.66333q-0.37905 0.03553-0.75809 0.03553h-1.3267v3.3167h-0.80548v-8.0547q0.42643-0.11845 1.0009-0.17176t1.0602-0.0533q1.6939 0 2.5526 0.63964t0.85878 1.8952zm-3.3166-1.836q-0.45012 0-0.78771 0.02961t-0.56264 0.0533v3.4943h1.1134q0.55672 0 1.0542-0.0533t0.8647-0.2369 0.58041-0.52711 0.21321-0.93577q0-0.54488-0.21321-0.90024t-0.55672-0.56264-0.78771-0.28429-0.918-0.07699zm4.7499 4.513q0-0.80547 0.23098-1.4036t0.60411-1.0009 0.85285-0.59818 0.98907-0.19545q1.1253 0 1.7946 0.7344t0.66925 2.2624q0 0.09477-0.00592 0.18953t-0.01777 0.17768h-4.2998q0.03553 1.1253 0.55672 1.7294t1.6583 0.60411q0.62779 0 0.99499-0.11845t0.53304-0.20137l0.14214 0.66333q-0.16584 0.09476-0.62187 0.22506t-1.072 0.13029q-0.80548 0-1.374-0.2369t-0.93577-0.66333-0.53303-1.0128-0.16583-1.2852zm4.3472-0.48565q-0.02369-0.95946-0.45011-1.4925t-1.2082-0.53304q-0.41458 0-0.74033 0.16584t-0.56857 0.44419-0.37904 0.64556-0.15991 0.76994h3.5062zm4.7618-5.6383q0.4975 0 0.81139 0.077t0.40866 0.13622l-0.15398 0.66333q-0.1303-0.05923-0.38497-0.12438t-0.64557-0.06515q-0.81731 0-1.1668 0.41458t-0.34943 1.3267v0.63964h2.4638v0.65148h-2.4638v5.4725h-0.76994v-6.7873q0-1.1964 0.5508-1.8005t1.6998-0.60411zm4.288 2.9494q0.37904 0 0.71663 0.05923t0.46789 0.11845l-0.15399 0.66333q-0.09476-0.04738-0.38497-0.10068t-0.76402-0.05331q-0.49749 0-0.79955 0.07108t-0.39681 0.11845v5.3659h-0.76994v-5.8397q0.29613-0.1303 0.81732-0.26652t1.2674-0.13622zm4.2761 5.6857q0.45012 0 0.78771-0.02961t0.57449-0.07699v-2.1558q-0.1303-0.05922-0.41459-0.12437t-0.78178-0.06515q-0.28428 0-0.59226 0.04146t-0.56856 0.17768-0.42643 0.37312-0.16583 0.62779q0 0.34351 0.11252 0.58042t0.31982 0.37904 0.4975 0.20729 0.65741 0.06515zm-0.07107-5.7094q0.6041 0 1.0246 0.17176t0.6811 0.47381 0.37904 0.71663 0.11845 0.90023v3.8615q-0.11845 0.03554-0.34351 0.077t-0.52118 0.08884-0.65741 0.07699-0.74033 0.02961q-0.48565 0-0.89431-0.1066t-0.71071-0.33759-0.47381-0.59226-0.17175-0.88247q0-0.49749 0.18952-0.85285t0.53303-0.58634 0.81732-0.33758 1.0305-0.10661q0.16584 0 0.34944 0.01777t0.35535 0.04738 0.29613 0.05922 0.17176 0.05331v-0.37905q0-0.31982-0.04738-0.62187t-0.20729-0.54488-0.45012-0.39089-0.76402-0.14807q-0.67517 0-1.0068 0.09477t-0.48565 0.15398l-0.10661-0.67517q0.20137-0.09476 0.62187-0.17768t1.0128-0.08292zm4.1695 0.35536q0.34351-0.09476 0.89432-0.21321t1.4273-0.11846q1.1608 0 1.682 0.67518 0.05922-0.04738 0.23098-0.15991t0.43235-0.23098 0.61003-0.20137 0.77586-0.08291q0.69886 0 1.1312 0.20729t0.66925 0.58041 0.31982 0.89431 0.08292 1.1371v3.4233h-0.76994v-3.1745q0-0.60411-0.0533-1.0483t-0.21321-0.7344-0.45604-0.43827-0.76994-0.14807q-0.35536 0-0.64556 0.06515t-0.50342 0.15991-0.34944 0.18952-0.19544 0.14215q0.1066 0.30797 0.15991 0.69294t0.0533 0.81139v3.4825h-0.76994v-3.1745q0-0.60411-0.0533-1.0483t-0.21913-0.7344-0.46789-0.43827-0.79955-0.14807q-0.55672 0-0.94169 0.05923t-0.49158 0.1066v5.3777h-0.76993v-5.9108h-1e-5zm9.8552 2.8428q0-0.80547 0.23098-1.4036t0.60411-1.0009 0.85285-0.59818 0.98907-0.19545q1.1253 0 1.7946 0.73441t0.66925 2.2624q0 0.09476-0.00592 0.18952t-0.01777 0.17768h-4.2998q0.03553 1.1253 0.55672 1.7294t1.6583 0.60411q0.62779 0 0.99499-0.11845t0.53304-0.20137l0.14214 0.66333q-0.16583 0.09476-0.62187 0.22506t-1.072 0.1303q-0.80547 0-1.374-0.23691t-0.93577-0.66333-0.53304-1.0128-0.16583-1.2852zm4.3472-0.48565q-0.02369-0.95946-0.45011-1.4925t-1.2082-0.53304q-0.41458 0-0.74033 0.16584t-0.56856 0.44419-0.37905 0.64557-0.15991 0.76993h3.5062z" fill="#595959" stroke="null"/>
</g>
<g stroke="null">
<path d="m64.163 48.195v3.9026h-1.0376v-9.1263h4.9794v0.94282h-3.9418v3.3398h3.7037v0.94104h-3.7037zm6.2811-5.8114v9.714h-1.0133v-9.714h1.0133zm4.9811 9.8383q-1.486 0-2.3446-0.92328-0.85857-0.92506-0.85857-2.5657 0-1.6548 0.79774-2.6278 0.79774-0.97478 2.1412-0.97478 1.2601 0 1.9935 0.84694 0.7317 0.84516 0.7317 2.2301v0.65695h-4.6127q0.03129 1.2038 0.59614 1.8288 0.56485 0.62322 1.592 0.62322 1.081 0 2.1377-0.46164v0.92328q-0.53704 0.23792-1.0167 0.3409t-1.1575 0.10298zm-0.27634-6.2233q-0.80643 0-1.2861 0.53622-0.47969 0.53799-0.56485 1.4861h3.5021q0-0.9801-0.42755-1.5021-0.42929-0.52024-1.2236-0.52024zm3.3804 6.099l2.4488-3.5032-2.3272-3.338h1.154l1.7658 2.6207 1.7606-2.6207h1.1419l-2.3272 3.338 2.4506 3.5032h-1.1488l-1.877-2.7716-1.8944 2.7716h-1.1471zm8.4067-6.8412v6.8412h-1.015v-6.8412h1.015zm-1.1002-1.8554q0-0.3551 0.17206-0.52023 0.17032-0.16513 0.42755-0.16513 0.24332 0 0.42059 0.16868 0.17728 0.16868 0.17728 0.51668 0 0.34979-0.17728 0.52201-0.17727 0.17223-0.42059 0.17223-0.25723 0-0.42755-0.17223-0.17206-0.17222-0.17206-0.52201zm6.368 1.7418q1.3191 0 2.0491 0.92151 0.72996 0.91973 0.72996 2.6065 0 1.685-0.73691 2.6172-0.73517 0.93393-2.0422 0.93393-0.65522 0-1.1957-0.2468t-0.90724-0.75815h-0.073l-0.21377 0.88066h-0.72648v-9.714h1.0132v2.3597q0 0.79367-0.04866 1.424h0.04866q0.70911-1.0245 2.103-1.0245zm-0.14773 0.86824q-1.0393 0-1.4964 0.60901-0.45883 0.60902-0.45883 2.0508t0.471 2.0632q0.471 0.61966 1.5086 0.61966 0.93505 0 1.3939-0.69601 0.45709-0.69601 0.45709-1.9993 0-1.337-0.45709-1.9922-0.45883-0.65518-1.4182-0.65518zm5.7128-3.6274v9.714h-1.0132v-9.714h1.0132zm4.9794 9.8383q-1.4842 0-2.3428-0.92328-0.85857-0.92506-0.85857-2.5657 0-1.6548 0.79774-2.6278 0.79774-0.97478 2.1412-0.97478 1.26 0 1.9917 0.84694 0.73344 0.84516 0.73344 2.2301v0.65695h-4.6126q0.03128 1.2038 0.59613 1.8288 0.56485 0.62322 1.592 0.62322 1.081 0 2.1377-0.46164v0.92328q-0.53704 0.23792-1.0167 0.3409t-1.1592 0.10298zm-0.2746-6.2233q-0.80643 0-1.2861 0.53622-0.47969 0.53799-0.56485 1.4861h3.5003q0-0.9801-0.42755-1.5021-0.42754-0.52024-1.2218-0.52024zm14.391 6.099h-1.2044l-1.2288-4.0145q-0.11471-0.36753-0.43277-1.6726h-0.04866q-0.24506 1.092-0.42755 1.685l-1.2653 4.0021h-1.1732l-1.8266-6.8412h1.0619q0.64827 2.5781 0.98718 3.9257 0.33891 1.3476 0.38757 1.8164h0.04867q0.06778-0.35511 0.21725-0.9215 0.14947-0.56463 0.2607-0.89488l1.227-3.9257h1.1002l1.1975 3.9257q0.34238 1.0742 0.46404 1.804h0.0504q0.02434-0.22549 0.13035-0.69246 0.10776-0.46874 1.274-5.0372h1.0515l-1.851 6.8412v1e-5zm5.8901 0.12428q-1.486 0-2.3446-0.92328-0.85857-0.92506-0.85857-2.5657 0-1.6548 0.79774-2.6278 0.79774-0.97478 2.1412-0.97478 1.26 0 1.9935 0.84694 0.7317 0.84516 0.7317 2.2301v0.65695h-4.6126q0.03128 1.2038 0.59613 1.8288 0.56485 0.62322 1.592 0.62322 1.081 0 2.1377-0.46164v0.92328q-0.53704 0.23792-1.0167 0.3409t-1.1575 0.10298zm-0.27634-6.2233q-0.80643 0-1.2861 0.53622-0.47969 0.53799-0.56485 1.4861h3.5021q0-0.9801-0.42755-1.5021-0.42928-0.52024-1.2236-0.52024zm7.5829-0.85581q1.3209 0 2.0508 0.92151 0.72996 0.91973 0.72996 2.6065 0 1.685-0.73691 2.6172-0.73518 0.93393-2.0439 0.93393-0.65349 0-1.194-0.2468t-0.90723-0.75815h-0.073l-0.21377 0.88066h-0.72823v-9.714h1.015v2.3597q0 0.79367-0.04867 1.424h0.04867q0.7091-1.0245 2.1012-1.0245zm-0.14599 0.86824q-1.0393 0-1.4964 0.60901-0.45883 0.60902-0.45883 2.0508t0.47099 2.0632q0.46926 0.61966 1.5086 0.61966 0.93504 0 1.3939-0.69601 0.45709-0.69601 0.45709-1.9993 0-1.337-0.45709-1.9922-0.45884-0.65518-1.4182-0.65518zm10.967-0.7546v0.80432h-1.7032v6.0368h-1.015v-6.0368h-1.1975v-0.46874l1.1975-0.37464v-0.37997q0-2.5213 2.1569-2.5213 0.53183 0 1.2461 0.21839l-0.26243 0.82918q-0.58571-0.19353-1.0011-0.19353-0.57528 0-0.84988 0.39061-0.27461 0.39062-0.27461 1.2518v0.44389h1.7032zm4.2772-0.12607q0.44667 0 0.80122 0.07458l-0.14078 0.96234q-0.41538-0.0941-0.73343-0.0941-0.81165 0-1.3904 0.6747-0.57702 0.67471-0.57702 1.6797v3.67h-1.0133v-6.8412h0.83598l0.11645 1.266h0.04866q0.37367-0.66761 0.89855-1.0298 0.52487-0.36221 1.154-0.36221zm6.6722 6.9672h-0.75082l-0.20161-0.97477h-0.04866q-0.50054 0.64275-0.99935 0.87179-0.49707 0.22727-1.2427 0.22727-0.99588 0-1.5625-0.52378-0.56485-0.52556-0.56485-1.4932 0-2.0721 3.2448-2.1715l1.1367-0.03729v-0.42435q0-0.8061-0.33891-1.1896-0.33891-0.38351-1.0845-0.38351-0.83771 0-1.8944 0.52378l-0.3111-0.79189q0.49359-0.27521 1.0845-0.43146 0.58919-0.15625 1.1818-0.15625 1.1975 0 1.7745 0.54332 0.57702 0.54332 0.57702 1.7418v4.6697-1e-5zm-3.0415-0.73152q0.94721 0 1.4877-0.52911 0.54051-0.53089 0.54051-1.4861v-0.61789l-1.015 0.04261q-1.2096 0.04439-1.7432 0.3853-0.53531 0.33912-0.53531 1.0582 0 0.56107 0.3337 0.85404 0.33196 0.29296 0.93157 0.29296zm14.683 0.73152h-1.015v-4.4513q0-0.81675-0.34239-1.2269-0.34239-0.40838-1.0619-0.40838-0.94721 0-1.4008 0.55575-0.45188 0.55574-0.45188 1.7098v3.821h-1.0132v-4.4513q0-0.81675-0.34239-1.2269-0.34239-0.40838-1.0689-0.40838-0.95416 0-1.3974 0.58416-0.44319 0.58237-0.44319 1.9123v3.5901h-1.0133v-6.8412h0.82381l0.16511 0.93571h0.04867q0.28851-0.49893 0.80991-0.78124 0.52313-0.28054 1.1714-0.28054 1.5694 0 2.0526 1.1612h0.04866q0.29894-0.53622 0.86726-0.84871 0.56833-0.3125 1.2948-0.3125 1.1367 0 1.7032 0.59658 0.56485 0.59659 0.56485 1.9069v4.4637zm4.9185 0.12429q-1.4842 0-2.3428-0.92328-0.85858-0.92506-0.85858-2.5657 0-1.6548 0.79601-2.6278 0.79774-0.97478 2.143-0.97478 1.2583 0 1.9918 0.84694 0.73344 0.84516 0.73344 2.2301v0.65695h-4.6144q0.03128 1.2038 0.59613 1.8288 0.56485 0.62322 1.592 0.62322 1.081 0 2.1377-0.46165v0.92329q-0.53704 0.23792-1.0167 0.3409t-1.1575 0.10298zm-0.2746-6.2233q-0.80643 0-1.2861 0.53622-0.47969 0.53799-0.56659 1.4861h3.5021q0-0.9801-0.42755-1.5021-0.42755-0.52024-1.2218-0.52024zm10.887 6.099h-1.2027l-1.2288-4.0145q-0.11644-0.36754-0.43276-1.6726h-0.04866q-0.24506 1.092-0.42929 1.685l-1.2635 4.0021h-1.1732l-1.8266-6.8412h1.0619q0.64828 2.5781 0.98719 3.9257t0.38757 1.8164h0.04866q0.06779-0.35511 0.21725-0.9215 0.14947-0.56463 0.2607-0.89488l1.227-3.9257h1.1002l1.1975 3.9257q0.34239 1.0742 0.46405 1.804h0.04866q0.02433-0.22549 0.13209-0.69246 0.10776-0.46874 1.274-5.0372h1.0515l-1.8527 6.8412zm8.8429-3.4268q0 1.6726-0.82555 2.6118t-2.2785 0.93926q-0.89855 0-1.5955-0.43145-0.69694-0.42969-1.0758-1.2358-0.37889-0.80432-0.37889-1.8838 0-1.6743 0.8186-2.6065 0.82034-0.93394 2.2733-0.93394 1.406 0 2.2333 0.95525 0.82902 0.95524 0.82902 2.5852zm-5.1028 0q0 1.3104 0.51271 1.9975 0.51445 0.68536 1.5103 0.68536 0.99587 0 1.5121-0.68358 0.51618-0.68359 0.51618-1.9993 0-1.305-0.51618-1.9833-0.51619-0.67648-1.5242-0.67648-0.99587 0-1.5034 0.66761-0.5075 0.6676-0.5075 1.9922zm9.9344-3.5404q0.44666 0 0.80121 0.07458l-0.14077 0.96234q-0.41539-0.0941-0.73344-0.0941-0.81165 0-1.3904 0.6747-0.57702 0.67471-0.57702 1.6797v3.67h-1.0132v-6.8412h0.83598l0.11644 1.266h0.04867q0.37367-0.66761 0.89854-1.0298 0.52488-0.36221 1.154-0.36221zm3.0067 3.4641h0.04866q0.26244-0.37997 0.80122-0.99786l2.1621-2.3402h1.2044l-2.713 2.9137 2.9025 3.9275h-1.2288l-2.3637-3.2333-0.76472 0.67293v2.5603h-1.0011v-9.714h1.0011v5.1508q0 0.34268-0.04866 1.06z" fill="#595959" stroke="null"/>
</g>
</g>
</svg>
