<?xml version="1.0" encoding="UTF-8" standalone="no"?>
<svg xmlns:rdf="http://www.w3.org/1999/02/22-rdf-syntax-ns#" xmlns="http://www.w3.org/2000/svg" height="1375.4" width="916.93" version="1.1" xmlns:cc="http://creativecommons.org/ns#" xmlns:xlink="http://www.w3.org/1999/xlink" viewBox="0 0 916.92932 1375.39398" xmlns:dc="http://purl.org/dc/elements/1.1/">
 <defs>
  <symbol id="wildcard">
   <g transform="scale(0.915)">
     <circle style="color-rendering:auto;color:#000000;isolation:auto;mix-blend-mode:normal;shape-rendering:auto;solid-color:#000000;image-rendering:auto;fill:#121d31" cx="125.3" r="125.3" cy="125.29"/>
     <path style="fill:#00a5a5" d="m123.99 212.09-2.7501-2.2474.35468-24.607.35468-24.607 10.587-6.3134 10.587-6.3134 4.5066 2.4587c2.4787 1.3523 4.7056 3.0828 4.9488 3.8455l.44226 1.3869-10.131 5.8863-10.131 5.8863-.34612 21.669-.34612 21.669-2.6646 1.7676-2.6646 1.7676-2.7501-2.2474zm14.053-23.397.35099-17.988 5.0599-2.8637c2.783-1.5751 5.4869-2.873 6.0087-2.8846l.94874-.0208v36.057l-5.3762 2.8475c-2.9569 1.5662-5.8187 2.846-6.3596 2.8441l-.98345-.004.35096-17.988zm-70.787-8.9718c-2.2521-1.5222-4.1021-3.0849-4.1112-3.4729-.009-.38792 6.5712-4.5149 14.623-9.1711 8.0503-4.6652 15.133-8.4703 15.738-8.4703.60523 0 3.1253 1.1948 5.6001 2.655 2.4749 1.4602 4.4945 3.0256 4.4882 3.4787-.006.45308-6.8488 4.6662-15.205 9.3624-8.3567 4.6962-15.609 8.5032-16.117 8.46-.50765-.0433-2.7656-1.3241-5.0176-2.8462zm-14.564-8.5614-2.2137-1.2852v-6.8556l2.8462-1.8096c1.5654-.99529 8.254-4.904 14.864-8.686 6.6095-3.782 13.789-7.8896 15.955-9.128 2.1658-1.2385 5.0664-2.9565 6.4457-3.8178l2.5078-1.5661 12.857 7.2799c7.0716 4.0039 13.146 7.747 13.499 8.318l.64162 1.0382-2.4258 1.6991-2.4258 1.6991-.44155 2.6972-.44224 2.6919-9.4874-5.5558c-5.218-3.0545-10.273-5.5631-11.232-5.5747-.95981-.0113-9.7413 4.5327-19.514 10.099-9.7731 5.5659-18.095 10.103-18.495 10.081-.39889-.0212-1.7215-.61867-2.939-1.3278zm123.64-10.68c-11.132-6.5386-26.917-15.646-35.077-20.238-8.1608-4.5923-15.137-8.8347-15.504-9.4276l-.66624-1.078 4.2684-2.638c2.3476-1.4509 4.9875-2.638 5.8665-2.638.87892 0 6.7888 2.942 13.133 6.538 6.3442 3.5959 18.366 10.497 26.714 15.338 8.3489 4.8397 18.168 10.557 21.82 12.704l6.6412 3.9044v6.9664l-2.4468 1.3095c-1.3457.72021-2.9112 1.2733-3.4787 1.229-.56754-.0442-10.14-5.4303-21.272-11.969zm24.035-6.1838c-1.3864-.91078-20.594-12.032-42.686-24.722-22.093-12.687-40.166-23.29-40.166-23.561 0-.27127 2.2793-1.9321 5.065-3.6906l5.065-3.1974 8.5336 4.9046c4.6934 2.6976 17.926 10.322 29.405 16.944 11.48 6.6216 24.71 14.243 29.399 16.936l8.5269 4.8961.0114 6.6412c.006 3.6527-.1306 6.6113-.30453 6.5748-.17394-.0365-1.4547-.81148-2.8462-1.7222zm-77.223-4.4122c-.66083-.61731-8.8862-5.5356-18.278-10.909-9.3922-5.3716-19.354-11.102-22.137-12.732-2.783-1.6303-10.298-5.9029-16.7-9.4944-6.4018-3.5915-12.806-7.6172-14.231-8.9449l-2.5917-2.4136v-8.607l1.2934-.79946 1.2934-.79947 5.3477 3.0562c2.9412 1.6811 12.895 7.407 22.119 12.725 9.2241 5.3172 24.025 13.855 32.89 18.973 8.8651 5.1179 17.965 10.391 20.221 11.719 2.2567 1.3275 4.1024 2.6982 4.1015 3.0461-.00097.34787-2.2448 1.9133-4.9864 3.4787-2.7415 1.5654-5.4695 2.8462-6.0622 2.8462-.59268 0-1.6184-.5126-2.2794-1.1391zm-17.013-29.99c-6.6093-3.8901-19.133-11.106-27.83-16.035-8.697-4.9294-18.801-10.866-22.454-13.193l-6.6406-4.2301v-3.717l2.53-2.53c1.3915-1.3915 2.9659-2.53 3.4987-2.53.53285 0 4.9444 2.3338 9.8036 5.1864 4.8591 2.8526 16.804 9.7786 26.544 15.391 9.7404 5.6127 22.121 12.705 27.514 15.761 5.392 3.056 9.8036 5.7999 9.8036 6.0976 0 .29772-2.2656 1.9716-5.0348 3.7196-2.7691 1.7481-5.1884 3.1722-5.3762 3.1647-.18777-.008-5.7492-3.1962-12.358-7.0858zm41.112-15.079c-6.2616-3.733-11.954-7.0653-12.65-7.4051l-1.265-.61783 2.2137-1.8001 2.2137-1.8001v-5.4136h1.7373c.9555 0 6.0956 2.6196 11.422 5.8212l9.6852 5.8212 17.988-10.456c9.8936-5.7509 18.392-10.666 18.886-10.924.4935-.25735 2.0589.25753 3.4787 1.1442l2.5814 1.6121v6.7313l-4.7437 2.8275c-2.609 1.5551-12.016 7.0191-20.906 12.142-8.889 5.1232-16.859 9.2674-17.71 9.2095-.85142-.058-6.6712-3.1596-12.933-6.8926zm-42.514-5.4161c-1.8145-1.1668-3.3122-2.6909-3.3284-3.3861l-.0304-1.265 9.6534-5.816 9.6534-5.816.34812-21.29.34711-21.289 1.3884-1.6729 1.3884-1.6727h5.5092l1.518 1.518 1.518 1.518v49.494l-10.268 5.9916-10.268 5.9916-2.0662-.0925c-1.1354-.0516-3.55-1.0474-5.3635-2.2142zm49.787-10.022c-2.2567-1.1253-4.1087-2.4864-4.1087-3.0258 0-.53882 4.127-3.3528 9.1711-6.2534s11.846-6.9512 15.116-9.0015l5.9447-3.7278 5.7778 3.386 5.7778 3.386-7.295 4.4014c-4.0123 2.4208-10.766 6.3458-15.007 8.7221-4.2413 2.3764-8.5106 4.2843-9.4874 4.2398-.97674-.0445-3.6259-1.0016-5.8871-2.127zm-50.632-21.857.35116-17.74 5.3767-3.2036 5.3757-3.2039v36.579l-4.4993 2.6554c-2.4753 1.4593-5.0528 2.6544-5.7278 2.6544h-1.2274l.35096-17.74z"/>
   </g>
   <text y="181.76115" x="207.47691" style="font-size:123.81px;font-family:&apos;Segoe UI&apos;, Roboto, Oxygen, Ubuntu, Cantarell, &apos;Fira Sans&apos;, &apos;Droid Sans&apos;, &apos;Helvetica Neue&apos;, sans-serif;fill:#595959" transform="scale(1.2619 .79243)">Wildcard</text>
  </symbol>
  <symbol id="goldpage">
   <circle cy="112.66" cx="112.88" r="111.98" fill="#4a4a4a"/>
   <circle cy="112.66" cx="112.88" r="88.539" fill="#5a676f"/>
   <text font-size="114.45px" transform="scale(1.1665 .85723)" style="line-height:125%" y="138.43915" x="225.6058" font-family="&apos;Segoe UI&apos;, Roboto, Oxygen, Ubuntu, Cantarell, &apos;Fira Sans&apos;, &apos;Droid Sans&apos;, &apos;Helvetica Neue&apos;, sans-serif" fill="#595959">
    <tspan y="167.43915" x="225.6058">Goldpage</tspan>
   </text>
   <g shape-rendering="auto" transform="translate(-3.3421)" fill="#ffd700">
    <path style="isolation:auto;mix-blend-mode:normal" d="m157.27 112.43-31.799 44.394c-1.1865 2.0569 1.1866 3.5996 5.4581 3.5996h17.798c3.085 0 4.7461-.68564 7.3565-3.5996l31.799-44.394-32.036-44.566c-2.3731-2.9139-4.2715-3.5996-7.3565-3.5996h-17.798c-4.2715 0-6.6446 1.7141-5.4581 3.5996l32.036 44.566z" color="#000000" solid-color="#000000" image-rendering="auto" color-rendering="auto"/>
    <path style="isolation:auto;mix-blend-mode:normal" d="m73.993 113.3 31.799-44.394c1.1865-2.0569-1.1866-3.5996-5.4581-3.5996h-17.798c-3.085 0-4.7461.68563-7.3565 3.5996l-31.562 44.394 31.799 44.394c2.3731 2.9139 4.2715 3.5996 7.3565 3.5996h17.798c4.2715 0 6.6446-1.7141 5.4581-3.5996l-32.037-44.394z" color="#000000" solid-color="#000000" image-rendering="auto" color-rendering="auto"/>
   </g>
  </symbol>
  <symbol id="react">
   <g transform="translate(-175.7,-78)">
    <path style="fill:#61dafb" d="m666.3 296.5c0-32.5-40.7-63.3-103.1-82.4 14.4-63.6 8-114.2-20.2-130.4-6.5-3.8-14.1-5.6-22.4-5.6v22.3c4.6 0 8.3.9 11.4 2.6 13.6 7.8 19.5 37.5 14.9 75.7-1.1 9.4-2.9 19.3-5.1 29.4-19.6-4.8-41-8.5-63.5-10.9-13.5-18.5-27.5-35.3-41.6-50 32.6-30.3 63.2-46.9 84-46.9v-22.3c-27.5 0-63.5 19.6-99.9 53.6-36.4-33.8-72.4-53.2-99.9-53.2v22.3c20.7 0 51.4 16.5 84 46.6-14 14.7-28 31.4-41.3 49.9-22.6 2.4-44 6.1-63.6 11-2.3-10-4-19.7-5.2-29-4.7-38.2 1.1-67.9 14.6-75.8 3-1.8 6.9-2.6 11.5-2.6v-22.3c-8.4 0-16 1.8-22.6 5.6-28.1 16.2-34.4 66.7-19.9 130.1-62.2 19.2-102.7 49.9-102.7 82.3 0 32.5 40.7 63.3 103.1 82.4-14.4 63.6-8 114.2 20.2 130.4 6.5 3.8 14.1 5.6 22.5 5.6 27.5 0 63.5-19.6 99.9-53.6 36.4 33.8 72.4 53.2 99.9 53.2 8.4 0 16-1.8 22.6-5.6 28.1-16.2 34.4-66.7 19.9-130.1 62-19.1 102.5-49.9 102.5-82.3zm-130.2-66.7c-3.7 12.9-8.3 26.2-13.5 39.5-4.1-8-8.4-16-13.1-24-4.6-8-9.5-15.8-14.4-23.4 14.2 2.1 27.9 4.7 41 7.9zm-45.8 106.5c-7.8 13.5-15.8 26.3-24.1 38.2-14.9 1.3-30 2-45.2 2-15.1 0-30.2-.7-45-1.9-8.3-11.9-16.4-24.6-24.2-38-7.6-13.1-14.5-26.4-20.8-39.8 6.2-13.4 13.2-26.8 20.7-39.9 7.8-13.5 15.8-26.3 24.1-38.2 14.9-1.3 30-2 45.2-2 15.1 0 30.2.7 45 1.9 8.3 11.9 16.4 24.6 24.2 38 7.6 13.1 14.5 26.4 20.8 39.8-6.3 13.4-13.2 26.8-20.7 39.9zm32.3-13c5.4 13.4 10 26.8 13.8 39.8-13.1 3.2-26.9 5.9-41.2 8 4.9-7.7 9.8-15.6 14.4-23.7 4.6-8 8.9-16.1 13-24.1zm-101.4 106.7c-9.3-9.6-18.6-20.3-27.8-32 9 .4 18.2.7 27.5.7 9.4 0 18.7-.2 27.8-.7-9 11.7-18.3 22.4-27.5 32zm-74.4-58.9c-14.2-2.1-27.9-4.7-41-7.9 3.7-12.9 8.3-26.2 13.5-39.5 4.1 8 8.4 16 13.1 24s9.5 15.8 14.4 23.4zm73.9-208.1c9.3 9.6 18.6 20.3 27.8 32-9-.4-18.2-.7-27.5-.7-9.4 0-18.7.2-27.8.7 9-11.7 18.3-22.4 27.5-32zm-74 58.9c-4.9 7.7-9.8 15.6-14.4 23.7-4.6 8-8.9 16-13 24-5.4-13.4-10-26.8-13.8-39.8 13.1-3.1 26.9-5.8 41.2-7.9zm-90.5 125.2c-35.4-15.1-58.3-34.9-58.3-50.6s22.9-35.6 58.3-50.6c8.6-3.7 18-7 27.7-10.1 5.7 19.6 13.2 40 22.5 60.9-9.2 20.8-16.6 41.1-22.2 60.6-9.9-3.1-19.3-6.5-28-10.2zm53.8 142.9c-13.6-7.8-19.5-37.5-14.9-75.7 1.1-9.4 2.9-19.3 5.1-29.4 19.6 4.8 41 8.5 63.5 10.9 13.5 18.5 27.5 35.3 41.6 50-32.6 30.3-63.2 46.9-84 46.9-4.5-.1-8.3-1-11.3-2.7zm237.2-76.2c4.7 38.2-1.1 67.9-14.6 75.8-3 1.8-6.9 2.6-11.5 2.6-20.7 0-51.4-16.5-84-46.6 14-14.7 28-31.4 41.3-49.9 22.6-2.4 44-6.1 63.6-11 2.3 10.1 4.1 19.8 5.2 29.1zm38.5-66.7c-8.6 3.7-18 7-27.7 10.1-5.7-19.6-13.2-40-22.5-60.9 9.2-20.8 16.6-41.1 22.2-60.6 9.9 3.1 19.3 6.5 28.1 10.2 35.4 15.1 58.3 34.9 58.3 50.6-.1 15.7-23 35.6-58.4 50.6z"/>
    <polygon style="fill:#61dafb" points="320.8 78.4"/>
    <circle cy="296.5" cx="420.9" r="45.7" style="fill:#61dafb"/>
    <polygon style="fill:#61dafb" points="520.5 78.1"/>
   </g>
  </symbol>
  <symbol id="nodejs">
   <title>nodejs-icon</title>
   <g data-name="Layer 2">
    <g data-name="Layer 1">
     <path d="m201.98 3.074-190.47 109.94a22.988 22.988 0 0 0 -11.51 19.92v220.04a22.982 22.982 0 0 0 11.511 19.92l190.49 110.02a23.061 23.061 0 0 0 23.013 0l190.46-110.02a23.04 23.04 0 0 0 11.483 -19.92v-220.04a22.988 22.988 0 0 0 -11.528 -19.92l-190.43-109.94a23.157 23.157 0 0 0 -23.058 0" fill="url(#ab264d35-0f98-4bb3-85a2-8ab15264d25d)"/>
     <path d="m4.72 366.94a23.043 23.043 0 0 0 6.782 5.95l163.39 94.378 27.217 15.643a23.089 23.089 0 0 0 13.265 3.007 23.559 23.559 0 0 0 4.521 -.828l200.89-367.84a22.792 22.792 0 0 0 -5.353 -4.25l-124.72-72.021-65.93-37.932a24 24 0 0 0 -5.968 -2.4z" fill="url(#b)"/>
     <path d="m211.19.127a23.236 23.236 0 0 0 -9.2 2.947l-189.93 109.63 204.8 373.03a22.845 22.845 0 0 0 8.183 -2.822l190.48-110.02a23.084 23.084 0 0 0 11.122 -15.715l-208.78-356.68a23.907 23.907 0 0 0 -4.66 -.459q-.95 0-1.9.09" fill="url(#a)"/>
    </g>
   </g>
  </symbol>
  <linearGradient id="ab264d35-0f98-4bb3-85a2-8ab15264d25d" y2="441.05" gradientUnits="userSpaceOnUse" x2="116.43" y1="44.907" x1="310.5">
   <stop stop-color="#3e863d" offset=".3"/>
   <stop stop-color="#55934f" offset=".5"/>
   <stop stop-color="#5aad45" offset=".8"/>
  </linearGradient>
  <linearGradient id="b" y2="102.11" gradientUnits="userSpaceOnUse" x2="409.58" y1="389.4" x1="21.339">
   <stop stop-color="#3e863d" offset=".57"/>
   <stop stop-color="#619857" offset=".72"/>
   <stop stop-color="#76ac64" offset="1"/>
  </linearGradient>
  <linearGradient id="a" y2="242.89" gradientUnits="userSpaceOnUse" x2="426.64" y1="242.89" x1="12.058">
   <stop stop-color="#6bbf47" offset=".16"/>
   <stop stop-color="#79b461" offset=".38"/>
   <stop stop-color="#75ac64" offset=".47"/>
   <stop stop-color="#659e5a" offset=".7"/>
   <stop stop-color="#3e863d" offset=".9"/>
  </linearGradient>
 </defs>
 <use y="000" xlink:href="#react" transform="scale(.46)"/>
 <text y="173.76115" x="207.47691" style="font-size:123.81px;font-family:&apos;Segoe UI&apos;, Roboto, Oxygen, Ubuntu, Cantarell, &apos;Fira Sans&apos;, &apos;Droid Sans&apos;, &apos;Helvetica Neue&apos;, sans-serif;fill:#595959" transform="scale(1.2619 .79243)">React</text>
 <use y="300" xlink:href="#goldpage"/>
 <use y="600" xlink:href="#wildcard"/>
 <g transform="translate(23 900)">
  <use y="000" xlink:href="#nodejs" transform="scale(.42)"/>
  <g transform="translate(250 134)">
   <text style="font-size:123.81px;font-family:&apos;Segoe UI&apos;, Roboto, Oxygen, Ubuntu, Cantarell, &apos;Fira Sans&apos;, &apos;Droid Sans&apos;, &apos;Helvetica Neue&apos;, sans-serif;fill:#595959" transform="scale(1.2619 .79243)">Node.js</text>
  </g>
 </g>
</svg>
