<svg xmlns="http://www.w3.org/2000/svg" xmlns:xlink="http://www.w3.org/1999/xlink" viewBox="0 0 493.63 493.63">
  <path
    transform="rotate(-90 250 250)"
    d="M482.612,220.222L278.168,15.78c-10.743-10.762-26.931-13.976-40.98-8.154
	c-14.059,5.82-23.223,19.529-23.223,34.745v71.631H37.611C16.84,114.002,0,130.843,0,151.613v190.404
	c0,20.771,16.84,37.61,37.611,37.61h176.354v71.631c0,15.215,9.164,28.924,23.223,34.745c4.647,1.93,9.53,2.866,14.379,2.866
	c9.788,0,19.412-3.819,26.602-11.02l204.444-204.442C497.303,258.724,497.303,234.906,482.612,220.222z"
  />
</svg>
