<?xml version="1.0" encoding="UTF-8"?>
<svg viewBox="0 0 355 74" xmlns="http://www.w3.org/2000/svg">
<defs>
<linearGradient id="c" x1=".19794" x2=".90106" y1=".32813" y2=".57813">
<stop stop-color="#6c79f0" offset="0"/>
<stop stop-color="#20a2e8" offset="1"/>
</linearGradient>
<linearGradient id="b" x1="1" y1="1">
<stop stop-color="#6c79f0" offset="0"/>
<stop stop-color="#a85af7" offset="1"/>
</linearGradient>
<linearGradient id="a" x1=".85419" x2=".24872" y1=".82813" y2=".42188">
<stop stop-color="#d043fb" offset="0"/>
<stop stop-color="#a85af7" offset="1"/>
</linearGradient>
</defs>
<g stroke="null">
<polygon points="60.729 38.925 60.729 38.925 42.955 49.396 25.181 39.068 25.252 59.868 43.026 70.196 60.8 59.724" fill="url(#c)"/>
<polygon points="40.548 27.377 22.703 17.121 5 27.593 5.0708 48.32 22.915 58.648 22.774 37.849" fill="url(#b)"/>
<polygon points="42.955 46.527 60.729 36.128 60.588 15.328 42.814 5 25.111 15.471 42.885 25.799" fill="url(#a)"/>
</g>
<g transform="translate(-7.3657 -24.701) scale(3.5921)" fill="#fff">
<path d="m33.965 14.294q0 1.56-0.82 2.46t-2.16 1.3q0.32 0.4 0.83 1.08t1.05 1.49 1.06 1.69 0.88 1.68h-1.46q-0.42-0.8-0.91-1.6t-1-1.55-0.99-1.39l-0.84-1.12q-0.64 0.06-1.28 0.06h-2.24v5.6h-1.36v-13.6q0.72-0.2 1.69-0.29t1.79-0.09q2.86 0 4.31 1.08t1.45 3.2zm-5.6-3.1q-0.76 0-1.33 0.05t-0.95 0.09v5.9h1.88q0.94 0 1.78-0.09t1.46-0.4 0.98-0.89 0.36-1.58q0-0.92-0.36-1.52t-0.94-0.95-1.33-0.48-1.55-0.13zm8.02 7.62q0-1.36 0.39-2.37t1.02-1.69 1.44-1.01 1.67-0.33q1.9 0 3.03 1.24t1.13 3.82q0 0.16-0.01 0.32t-0.03 0.3h-7.26q0.06 1.9 0.94 2.92t2.8 1.02q1.06 0 1.68-0.2t0.9-0.34l0.24 1.12q-0.28 0.16-1.05 0.38t-1.81 0.22q-1.36 0-2.32-0.4t-1.58-1.12-0.9-1.71-0.28-2.17zm7.34-0.82q-0.04-1.62-0.76-2.52t-2.04-0.9q-0.7 0-1.25 0.28t-0.96 0.75-0.64 1.09-0.27 1.3h5.92zm8.04-9.52q0.84 0 1.37 0.13t0.69 0.23l-0.26 1.12q-0.22-0.1-0.65-0.21t-1.09-0.11q-1.38 0-1.97 0.7t-0.59 2.24v1.08h4.16v1.1h-4.16v9.24h-1.3v-11.46q0-2.02 0.93-3.04t2.87-1.02zm7.24 4.98q0.64 0 1.21 0.1t0.79 0.2l-0.26 1.12q-0.16-0.08-0.65-0.17t-1.29-0.09q-0.84 0-1.35 0.12t-0.67 0.2v9.06h-1.3v-9.86q0.5-0.22 1.38-0.45t2.14-0.23zm7.22 9.6q0.76 0 1.33-0.05t0.97-0.13v-3.64q-0.22-0.1-0.7-0.21t-1.32-0.11q-0.48 0-1 0.07t-0.96 0.3-0.72 0.63-0.28 1.06q0 0.58 0.19 0.98t0.54 0.64 0.84 0.35 1.11 0.11zm-0.12-9.64q1.02 0 1.73 0.29t1.15 0.8 0.64 1.21 0.2 1.52v6.52q-0.2 0.06-0.58 0.13t-0.88 0.15-1.11 0.13-1.25 0.05q-0.82 0-1.51-0.18t-1.2-0.57-0.8-1-0.29-1.49q0-0.84 0.32-1.44t0.9-0.99 1.38-0.57 1.74-0.18q0.28 0 0.59 0.03t0.6 0.08 0.5 0.1 0.29 0.09v-0.64q0-0.54-0.08-1.05t-0.35-0.92-0.76-0.66-1.29-0.25q-1.14 0-1.7 0.16t-0.82 0.26l-0.18-1.14q0.34-0.16 1.05-0.3t1.71-0.14zm7.04 0.6q0.58-0.16 1.51-0.36t2.41-0.2q1.96 0 2.84 1.14 0.1-0.08 0.39-0.27t0.73-0.39 1.03-0.34 1.31-0.14q1.18 0 1.91 0.35t1.13 0.98 0.54 1.51 0.14 1.92v5.78h-1.3v-5.36q0-1.02-0.09-1.77t-0.36-1.24-0.77-0.74-1.3-0.25q-0.6 0-1.09 0.11t-0.85 0.27-0.59 0.32-0.33 0.24q0.18 0.52 0.27 1.17t0.09 1.37v5.88h-1.3v-5.36q0-1.02-0.09-1.77t-0.37-1.24-0.79-0.74-1.35-0.25q-0.94 0-1.59 0.1t-0.83 0.18v9.08h-1.3v-9.98zm16.64 4.8q0-1.36 0.39-2.37t1.02-1.69 1.44-1.01 1.67-0.33q1.9 0 3.03 1.24t1.13 3.82q0 0.16-0.01 0.32t-0.03 0.3h-7.26q0.06 1.9 0.94 2.92t2.8 1.02q1.06 0 1.68-0.2t0.9-0.34l0.24 1.12q-0.28 0.16-1.05 0.38t-1.81 0.22q-1.36 0-2.32-0.4t-1.58-1.12-0.9-1.71-0.28-2.17zm7.34-0.82q-0.04-1.62-0.76-2.52t-2.04-0.9q-0.7 0-1.25 0.28t-0.96 0.75-0.64 1.09-0.27 1.3h5.92z" fill="#595959"/>
</g>
</svg>
