<svg width="256" height="256" xmlns="http://www.w3.org/2000/svg">

 <g>
  <title>background</title>
  <rect fill="none" id="canvas_background" height="258" width="258" y="-1" x="-1"/>
 </g>
 <g>
  <title>Layer 1</title>
  <path id="svg_1" fill="#1da1f2" d="m82.289724,227.908561c94.34,0 145.94,-78.16 145.94,-145.94c0,-2.22 0,-4.43 -0.15,-6.63a104.36,104.36 0 0 0 25.59,-26.55a102.38,102.38 0 0 1 -29.46,8.07a51.47,51.47 0 0 0 22.55,-28.37a102.79,102.79 0 0 1 -32.57,12.45a51.34,51.34 0 0 0 -87.41,46.78a145.62,145.62 0 0 1 -105.71,-53.59a51.33,51.33 0 0 0 15.88,68.47a50.91,50.91 0 0 1 -23.28,-6.42c0,0.21 0,0.43 0,0.65a51.31,51.31 0 0 0 41.15,50.28a51.21,51.21 0 0 1 -23.16,0.88a51.35,51.35 0 0 0 47.92,35.62a102.92,102.92 0 0 1 -63.7,22a104.41,104.41 0 0 1 -12.21,-0.74a145.21,145.21 0 0 0 78.62,23"/>
 </g>
</svg>