<?xml version="1.0" encoding="UTF-8" standalone="no"?>
<svg
   xmlns:osb="http://www.openswatchbook.org/uri/2009/osb"
   xmlns:dc="http://purl.org/dc/elements/1.1/"
   xmlns:cc="http://creativecommons.org/ns#"
   xmlns:rdf="http://www.w3.org/1999/02/22-rdf-syntax-ns#"
   xmlns:svg="http://www.w3.org/2000/svg"
   xmlns="http://www.w3.org/2000/svg"
   xmlns:sodipodi="http://sodipodi.sourceforge.net/DTD/sodipodi-0.dtd"
   xmlns:inkscape="http://www.inkscape.org/namespaces/inkscape"
   width="332.43567mm"
   height="73.419998mm"
   viewBox="0 0 332.43566 73.419997"
   version="1.1"
   id="svg845"
   inkscape:version="0.92.4 (5da689c313, 2019-01-14)"
   sodipodi:docname="stemjs.svg">
  <defs
     id="defs839">
    <linearGradient
       id="linearGradient6216"
       osb:paint="solid">
      <stop
         style="stop-color:#393f4f;stop-opacity:1;"
         offset="0"
         id="stop6214" />
    </linearGradient>
    <linearGradient
       id="linearGradient6068"
       osb:paint="solid">
      <stop
         style="stop-color:#f2c742;stop-opacity:1;"
         offset="0"
         id="stop6066" />
    </linearGradient>
    <linearGradient
       id="linearGradient6026"
       osb:paint="solid">
      <stop
         style="stop-color:#393f4f;stop-opacity:1;"
         offset="0"
         id="stop6024" />
    </linearGradient>
    <linearGradient
       id="linearGradient4562"
       osb:paint="solid">
      <stop
         style="stop-color:#393f4f;stop-opacity:1;"
         offset="0"
         id="stop4560" />
    </linearGradient>
  </defs>
  <sodipodi:namedview
     id="base"
     pagecolor="#ffffff"
     bordercolor="#666666"
     borderopacity="1.0"
     inkscape:pageopacity="0.19607843"
     inkscape:pageshadow="2"
     inkscape:zoom="0.51191787"
     inkscape:cx="891.44287"
     inkscape:cy="191.22092"
     inkscape:document-units="mm"
     inkscape:current-layer="layer1"
     inkscape:document-rotation="0"
     showgrid="false"
     inkscape:window-width="1366"
     inkscape:window-height="736"
     inkscape:window-x="0"
     inkscape:window-y="16"
     inkscape:window-maximized="1"
     showborder="false"
     showguides="false"
     inkscape:snap-global="false"
     fit-margin-top="0"
     fit-margin-left="-0.7"
     fit-margin-right="0"
     fit-margin-bottom="0"
     scale-x="1">
    <inkscape:grid
       type="xygrid"
       id="grid844"
       originx="-0.50000007"
       originy="-9.5367099e-08" />
  </sodipodi:namedview>
  <metadata
     id="metadata842">
    <rdf:RDF>
      <cc:Work
         rdf:about="">
        <dc:format>image/svg+xml</dc:format>
        <dc:type
           rdf:resource="http://purl.org/dc/dcmitype/StillImage" />
        <dc:title></dc:title>
      </cc:Work>
    </rdf:RDF>
  </metadata>
  <g
     inkscape:label="Layer 1"
     inkscape:groupmode="layer"
     id="layer1"
     transform="translate(-109.31647,-70.503169)">
    <path
       id="path907"
       style="fill:#f2c742;fill-opacity:1;stroke:#393f4f;stroke-width:5.5999999;stroke-miterlimit:4;stroke-dasharray:none;stroke-opacity:1"
       d="m 179.23647,104.41317 c 0,9.13532 -2.73747,18.55978 -6.67191,23.66465 -5.3733,6.97176 -15.01653,13.04535 -24.60909,13.04535 -8.52345,0 -17.72286,-2.23079 -23.97994,-7.7608 -8.1813,-7.23064 -12.55906,-18.84477 -12.55906,-29.0492 0,-9.167533 3.07943,-15.825458 8.35437,-21.341621 5.50097,-5.752527 13.38278,-9.668381 22.94313,-9.66838 12.31183,10e-7 22.00934,4.772816 28.67994,11.486155 5.40772,5.442371 7.84256,13.207805 7.84256,19.623846 z"
       sodipodi:nodetypes="sssssssss"
       inkscape:connector-curvature="0" />
    <path
       style="fill:#393f4f;fill-opacity:1;stroke-width:2.8123"
       inkscape:connector-curvature="0"
       id="path1531"
       d="m 127.79166,106.79259 c -3.82893,-4.60682 -1.40915,-12.424905 3.24845,-16.149535 4.67915,-3.742716 13.62912,-4.571045 16.85032,-0.775925 3.34427,3.985545 -0.65094,11.61679 -4.92002,15.23568 -4.70337,4.0201 -11.42216,6.21045 -15.17875,1.68978 z"
       class="st42"
       sodipodi:nodetypes="ccccc" />
    <g
       aria-label="StemJS"
       style="font-size:61.216px;line-height:30.95;font-family:Inter;-inkscape-font-specification:Inter;letter-spacing:0px;word-spacing:0px;fill:#393f4f;fill-opacity:1;stroke-width:0.241008"
       id="text816">
      <path
         d="m 215.145,129.69033 q -5.32579,0 -10.40672,-1.1631 -5.01971,-1.22432 -8.26416,-3.24445 l 4.65242,-10.52915 q 3.0608,1.77526 6.85619,2.87715 3.79539,1.04067 7.2847,1.04067 2.99959,0 4.28512,-0.55094 1.28554,-0.61216 1.28554,-1.77527 0,-1.34675 -1.71405,-2.02012 -1.65283,-0.67338 -5.50944,-1.46919 -4.95849,-1.04067 -8.26416,-2.20377 -3.30566,-1.22432 -5.7543,-3.91783 -2.44864,-2.75472 -2.44864,-7.407133 0,-4.040256 2.26499,-7.34592 2.26499,-3.305664 6.73376,-5.20336 4.52998,-1.897696 10.95766,-1.897696 4.40756,0 8.63146,0.979456 4.28512,0.91824 7.52957,2.75472 l -4.34634,10.467936 q -6.30525,-3.183232 -11.93712,-3.183232 -5.57065,0 -5.57065,2.693504 0,1.285536 1.65283,1.958915 1.65283,0.61216 5.44822,1.34675 4.89728,0.91824 8.26416,2.14256 3.36688,1.1631 5.81552,3.85661 2.50986,2.6935 2.50986,7.34592 0,4.04025 -2.26499,7.34592 -2.265,3.24444 -6.79498,5.20336 -4.46877,1.89769 -10.89645,1.89769 z"
         style="font-style:normal;font-variant:normal;font-weight:900;font-stretch:normal;font-size:61.216px;line-height:33.95;font-family:Montserrat;-inkscape-font-specification:'Montserrat Heavy';fill:#393f4f;fill-opacity:1;stroke-width:0.241008"
         id="path4521"
         inkscape:connector-curvature="0" />
      <path
         d="m 263.58216,127.54777 q -3.12201,1.77527 -8.50902,1.77527 -7.03984,0 -10.83523,-3.36688 -3.7954,-3.4281 -3.7954,-10.22308 v -8.57024 h -4.5912 V 97.062205 h 4.5912 v -9.366048 h 13.83482 v 9.366048 h 6.85619 v 10.100635 h -6.85619 v 8.44781 q 0,1.5304 0.79581,2.38743 0.79581,0.85702 2.08134,0.85702 1.77527,0 3.12202,-0.91824 z"
         style="font-style:normal;font-variant:normal;font-weight:900;font-stretch:normal;font-size:61.216px;line-height:33.95;font-family:Montserrat;-inkscape-font-specification:'Montserrat Heavy';fill:#393f4f;fill-opacity:1;stroke-width:0.241008"
         id="path4523"
         inkscape:connector-curvature="0" />
      <path
         d="m 301.80008,111.93769 q 0,0.30608 -0.18365,3.24445 h -23.26208 q 0.73459,1.8977 2.44864,2.93837 1.71405,0.97945 4.28512,0.97945 2.20377,0 3.67296,-0.55094 1.5304,-0.55094 3.30566,-1.8977 l 7.22349,7.28471 q -4.89728,5.38701 -14.63062,5.38701 -6.06039,0 -10.65159,-2.20378 -4.5912,-2.26499 -7.10105,-6.24403 -2.50986,-3.97904 -2.50986,-8.93754 0,-5.01971 2.44864,-8.93753 2.50986,-3.979043 6.79498,-6.182819 4.34633,-2.203776 9.73334,-2.203776 5.08093,0 9.24362,2.020128 4.2239,2.020128 6.67254,5.937947 2.50986,3.91783 2.50986,9.36605 z m -18.30359,-7.89686 q -2.14256,0 -3.55053,1.1631 -1.40796,1.16311 -1.83648,3.30567 h 10.77402 q -0.42851,-2.08135 -1.83648,-3.24445 -1.40797,-1.22432 -3.55053,-1.22432 z"
         style="font-style:normal;font-variant:normal;font-weight:900;font-stretch:normal;font-size:61.216px;line-height:33.95;font-family:Montserrat;-inkscape-font-specification:'Montserrat Heavy';fill:#393f4f;fill-opacity:1;stroke-width:0.241008"
         id="path4525"
         inkscape:connector-curvature="0" />
      <path
         d="m 350.42662,94.613565 q 6.06039,0 9.67213,3.734176 3.67296,3.734179 3.67296,11.263739 v 19.0994 H 349.9369 v -16.71197 q 0,-5.75431 -3.73418,-5.75431 -1.95891,0 -3.18323,1.46919 -1.16311,1.46918 -1.16311,4.65241 v 16.34468 h -13.83481 v -16.71197 q 0,-5.75431 -3.73418,-5.75431 -1.95891,0 -3.18323,1.46919 -1.1631,1.46918 -1.1631,4.65241 v 16.34468 H 306.10624 V 95.225725 h 13.16144 v 3.122016 q 3.73418,-3.734176 9.48848,-3.734176 3.36688,0 6.06038,1.285536 2.69351,1.22432 4.40756,3.795392 2.02012,-2.44864 4.89728,-3.734176 2.87715,-1.346752 6.30524,-1.346752 z"
         style="font-style:normal;font-variant:normal;font-weight:900;font-stretch:normal;font-size:61.216px;line-height:33.95;font-family:Montserrat;-inkscape-font-specification:'Montserrat Heavy';fill:#393f4f;fill-opacity:1;stroke-width:0.241008"
         id="path4527"
         inkscape:connector-curvature="0" />
    </g>
    <clipPath id="clip-group">
      <use xlink:href="#js-suffix-group"/>
    </clipPath>
    <clipPath id="clip-j">
      <use xlink:href="#js-suffix-j"/>
    </clipPath>
    <clipPath id="clip-s">
      <use xlink:href="#js-suffix-s"/>
    </clipPath>
    <g
       transform="matrix(0.99999757,0,0,0.99999757,4.3493883,1.5231645e-4)"
       aria-label="StemJS"
       style="font-size:61.2159996px;line-height:30.95000076;font-family:Inter;-inkscape-font-specification:Inter;letter-spacing:0px;word-spacing:0px;fill:#f2c742;fill-opacity:1;stroke:#393f4f;stroke-width:5.39801312;stroke-miterlimit:4;stroke-dasharray:none;stroke-opacity:1"
       id="js-suffix-group">
      <path
         d="m 380.97724,129.69033 q -5.01971,0 -9.12119,-1.59161 -4.04025,-1.65284 -6.67254,-4.77485 l 7.77443,-9.1824 q 1.71405,2.14256 3.36688,3.18323 1.65283,1.04067 3.4281,1.04067 2.26499,0 3.42809,-1.34675 1.22432,-1.34675 1.22432,-3.97904 V 96.756125 h -14.5694 V 85.859677 h 28.83273 v 26.322883 q 0,8.75388 -4.52998,13.16144 -4.46877,4.34633 -13.16144,4.34633 z"
         style="font-style:normal;font-variant:normal;font-weight:900;font-stretch:normal;font-size:61.2159996px;line-height:33.95000076;font-family:Montserrat;-inkscape-font-specification:'Montserrat Heavy';fill:#f2c742;fill-opacity:1;stroke:#393f4f;stroke-width:5.39801312;stroke-miterlimit:4;stroke-dasharray:none;stroke-opacity:1"
         id="js-suffix-j"
         clip-path="url(#clip-j)"
         inkscape:connector-curvature="0" />
      <path
         d="m 421.27075,129.69033 q -5.32579,0 -10.40672,-1.1631 -5.01971,-1.22432 -8.26416,-3.24445 l 4.65242,-10.52915 q 3.0608,1.77526 6.85619,2.87715 3.79539,1.04067 7.2847,1.04067 2.99959,0 4.28512,-0.55094 1.28554,-0.61216 1.28554,-1.77527 0,-1.34675 -1.71405,-2.02012 -1.65283,-0.67338 -5.50944,-1.46919 -4.9585,-1.04067 -8.26416,-2.20377 -3.30566,-1.22432 -5.7543,-3.91783 -2.44864,-2.75472 -2.44864,-7.407133 0,-4.040256 2.26499,-7.34592 2.26499,-3.305664 6.73376,-5.20336 4.52998,-1.897696 10.95766,-1.897696 4.40755,0 8.63146,0.979456 4.28512,0.91824 7.52957,2.75472 l -4.34634,10.467936 q -6.30525,-3.183232 -11.93712,-3.183232 -5.57066,0 -5.57066,2.693504 0,1.285536 1.65284,1.958915 1.65283,0.61216 5.44822,1.34675 4.89728,0.91824 8.26416,2.14256 3.36688,1.1631 5.81552,3.85661 2.50986,2.6935 2.50986,7.34592 0,4.04025 -2.265,7.34592 -2.26499,3.24444 -6.79497,5.20336 -4.46877,1.89769 -10.89645,1.89769 z"
         style="font-style:normal;font-variant:normal;font-weight:900;font-stretch:normal;font-size:61.2159996px;line-height:33.95000076;font-family:Montserrat;-inkscape-font-specification:'Montserrat Heavy';fill:#f2c742;fill-opacity:1;stroke:#393f4f;stroke-width:5.39801312;stroke-miterlimit:4;stroke-dasharray:none;stroke-opacity:1"
         id="js-suffix-s"
         clip-path="url(#clip-s)"
         inkscape:connector-curvature="0" />
    </g>
  </g>
</svg>
